{
	"asset":{
		"version":"2.0",
		"generator":"Created using the official Cinema 4D glTF Exporter 1.000x287526"
	},
	"scenes":[{
		"nodes":[0]
	}],
	"nodes":[{
		"name":"Sweep.1",
		"translation":[0.0,
		5.684341886080802e-14,
		-2.842170943040401e-14],
		"rotation":[0.0,
		0.0,
		0.0,
		-1.0],
		"scale":[1.0,
		1.0,
		1.0],
		"mesh":0,
		"children":[1],
		"skin":0
	},
	{
		"name":"1",
		"translation":[0.0,
		-5.417888360170764e-14,
		2.1316282072803007e-14],
		"rotation":[0.7071067690849304,
		0.0,
		0.0,
		-0.7071067690849304],
		"scale":[1.0,
		1.0,
		1.0],
		"children":[2]
	},
	{
		"name":"2",
		"translation":[0.0,
		3.1554436208840475e-30,
		-100.0],
		"rotation":[0.0,
		0.0,
		0.0,
		-1.0],
		"scale":[1.0,
		1.0,
		1.0],
		"children":[3]
	},
	{
		"name":"3",
		"translation":[0.0,
		6.310887241768095e-30,
		-100.0],
		"rotation":[0.0,
		0.0,
		0.0,
		-1.0],
		"scale":[1.0,
		1.0,
		1.0],
		"children":[4]
	},
	{
		"name":"4",
		"translation":[0.0,
		9.466330862652142e-30,
		-100.0],
		"rotation":[0.0,
		0.0,
		0.0,
		-1.0],
		"scale":[1.0,
		1.0,
		1.0],
		"children":[5]
	},
	{
		"name":"5",
		"translation":[0.0,
		1.262177448353619e-29,
		-100.0],
		"rotation":[4.440892098500626e-16,
		0.0,
		0.0,
		-1.0],
		"scale":[1.0,
		1.0,
		1.0],
		"children":[6]
	},
	{
		"name":"6",
		"translation":[0.0,
		7.573064690121713e-29,
		-100.0],
		"rotation":[-6.778360513974449e-16,
		0.0,
		0.0,
		-1.0],
		"scale":[1.0,
		1.0,
		1.0],
		"children":[7]
	},
	{
		"name":"7",
		"translation":[0.0,
		-2.524354896707238e-29,
		-100.0],
		"rotation":[2.643630062445666e-16,
		0.0,
		0.0,
		-1.0],
		"scale":[1.0,
		1.0,
		1.0],
		"children":[8]
	},
	{
		"name":"8",
		"translation":[0.0,
		2.7610131682735414e-30,
		-100.0],
		"rotation":[-9.860761315262648e-31,
		0.0,
		0.0,
		-1.0],
		"scale":[1.0,
		1.0,
		1.0],
		"children":[9]
	},
	{
		"name":"9",
		"translation":[0.0,
		-4.2992919334545143e-29,
		-100.0],
		"rotation":[0.0,
		0.0,
		0.0,
		-1.0],
		"scale":[1.0,
		1.0,
		1.0]
	}],
	"meshes":[{
		"primitives":[{
			"attributes":{
				"POSITION":1,
				"NORMAL":2,
				"TEXCOORD_0":3,
				"JOINTS_0":4,
				"WEIGHTS_0":5
			},
			"indices":0,
			"material":0
		}]
	}],
	"skins":[{
		"inverseBindMatrices":6,
		"joints":[1,
		2,
		3,
		4,
		5,
		6,
		7,
		8]
	}],
	"accessors":[{
		"bufferView":0,
		"type":"SCALAR",
		"componentType":5123,
		"count":636,
		"byteOffset":0,
		"min":[0],
		"max":[140]
	},
	{
		"bufferView":1,
		"type":"VEC3",
		"componentType":5126,
		"count":141,
		"byteOffset":0,
		"min":[-2.0,
		-799.9199829101563,
		-2.0],
		"max":[2.0,
		-5.684341886080802e-14,
		2.0]
	},
	{
		"bufferView":1,
		"type":"VEC3",
		"componentType":5126,
		"count":141,
		"byteOffset":12,
		"min":[-1.0,
		-1.0,
		-1.0],
		"max":[1.0,
		1.0,
		1.0]
	},
	{
		"bufferView":1,
		"type":"VEC2",
		"componentType":5126,
		"count":141,
		"byteOffset":24,
		"min":[0.0,
		0.0],
		"max":[1.0,
		1.0]
	},
	{
		"bufferView":2,
		"type":"VEC4",
		"componentType":5123,
		"count":141,
		"byteOffset":0,
		"min":[0,
		0,
		0,
		0],
		"max":[7,
		6,
		5,
		4]
	},
	{
		"bufferView":3,
		"type":"VEC4",
		"componentType":5126,
		"count":141,
		"byteOffset":0,
		"min":[1.0,
		0.0,
		0.0,
		0.0],
		"max":[1.0,
		0.0,
		0.0,
		0.0]
	},
	{
		"bufferView":4,
		"type":"MAT4",
		"componentType":5126,
		"count":8,
		"byteOffset":0,
		"min":[1.0,
		0.0,
		0.0,
		0.0,
		0.0,
		-4.062613272306164e-16,
		1.0,
		0.0,
		0.0,
		-1.0,
		-4.062613272306164e-16,
		0.0,
		0.0,
		-1.2361270861072082e-13,
		5.417888360170764e-14,
		1.0],
		"max":[1.0,
		0.0,
		0.0,
		0.0,
		0.0,
		9.494107490944939e-16,
		1.0,
		0.0,
		0.0,
		-1.0,
		9.494107490944939e-16,
		0.0,
		0.0,
		3.765876499528531e-13,
		700.0,
		1.0]
	}],
	"bufferViews":[{
		"buffer":0,
		"byteOffset":0,
		"byteLength":1272,
		"target":34963
	},
	{
		"buffer":0,
		"byteOffset":1272,
		"byteLength":4512,
		"target":34962,
		"byteStride":32
	},
	{
		"buffer":0,
		"byteOffset":5784,
		"byteLength":1128,
		"target":34962
	},
	{
		"buffer":0,
		"byteOffset":6912,
		"byteLength":2256,
		"target":34962
	},
	{
		"buffer":1,
		"byteOffset":0,
		"byteLength":512
	}],
	"buffers":[{
		"uri":"data:application/octet-stream;base64,",
		"byteLength":9168
	},
	{
		"uri":"data:application/octet-stream;base64,",
		"byteLength":512
	}],
	"materials":[{
		"pbrMetallicRoughness":{
			"baseColorFactor":[1.0,
			1.0,
			1.0,
			1.0],
			"metallicFactor":1.0,
			"roughnessFactor":1.0
		},
		"emissiveFactor":[0.0,
		0.0,
		0.0],
		"alphaMode":"OPAQUE",
		"doubleSided":false,
		"name":""
	}]
}